<?xml version="1.0" standalone="no"?>
<!DOCTYPE svg PUBLIC "-//W3C//DTD SVG 20010904//EN"
 "http://www.w3.org/TR/2001/REC-SVG-20010904/DTD/svg10.dtd">
<svg version="1.0" xmlns="http://www.w3.org/2000/svg"
 width="512.000000pt" height="512.000000pt" viewBox="0 0 512.000000 512.000000"
 preserveAspectRatio="xMidYMid meet">
<metadata>
Created by potrace 1.14, written by Peter Selinger 2001-2017
</metadata>
<g transform="translate(0.000000,512.000000) scale(0.100000,-0.100000)"
fill="#000000" stroke="none">
<path d="M415 5110 c-153 -31 -295 -141 -361 -279 -57 -120 -54 32 -53 -2266
0 -2269 -2 -2159 48 -2268 64 -139 197 -247 351 -283 75 -18 4229 -20 4312 -3
61 13 159 57 202 91 95 74 172 194 195 303 7 34 10 718 10 2160 0 1816 -2
2118 -15 2165 -49 187 -179 317 -373 374 -48 14 -264 16 -2165 15 -1161 -1
-2129 -5 -2151 -9z"/>
</g>
</svg>
